REM MD5 38aa5c6f102a0a32b826dad194f2f4cb
FILE "Extra Bright (Japan).bin" BINARY
  TRACK 01 MODE2/2352
    INDEX 01 00:00:00
  TRACK 02 AUDIO
    INDEX 00 50:16:55
    INDEX 01 50:18:55
  TRACK 03 AUDIO
    INDEX 00 50:29:27
    INDEX 01 50:31:27
  TRACK 04 AUDIO
    INDEX 00 50:55:35
    INDEX 01 50:57:35
REM LEADOUT 55:52:13
